<svg width="16" height="16" viewBox="0 0 16 16" fill="none" xmlns="http://www.w3.org/2000/svg">
<g id="Instagram Icon">
<path id="Vector" d="M7.99556 16C5.81011 16 5.55247 15.9885 4.69961 15.9512C4.03453 15.9294 3.37806 15.7944 2.75847 15.552C2.22826 15.346 1.74674 15.0321 1.34451 14.6303C0.942285 14.2285 0.628125 13.7475 0.421988 13.218C0.188612 12.5971 0.0627366 11.941 0.0497501 11.2779C-6.61906e-09 10.428 0 10.1495 0 7.98403C0 5.79552 0.0115491 5.54003 0.0497501 4.69284C0.0630207 4.03062 0.188892 3.37548 0.421988 2.75538C0.627889 2.22518 0.94226 1.74369 1.34502 1.34166C1.74779 0.939631 2.23009 0.625895 2.76113 0.420492C3.38181 0.186474 4.03806 0.0604517 4.70139 0.0479041C5.54981 -8.92285e-08 5.82876 0 7.99556 0C10.1988 0 10.452 0.0115324 11.2915 0.0479041C11.956 0.0603237 12.6152 0.186294 13.2371 0.420492C13.768 0.626133 14.2502 0.939952 14.6529 1.34195C15.0556 1.74395 15.3701 2.22532 15.5762 2.75538C15.8134 3.38523 15.9405 4.05057 15.9503 4.72211C16 5.57197 16 5.84963 16 8.01419C16 10.1788 15.9876 10.4626 15.9503 11.3027C15.937 11.9665 15.8108 12.6231 15.5771 13.2446C15.3705 13.7745 15.0557 14.2557 14.6529 14.6577C14.25 15.0596 13.7679 15.3735 13.2371 15.5795C12.6152 15.8119 11.9587 15.9379 11.2951 15.9512C10.4466 16 10.1686 16 7.99556 16ZM7.96535 1.4043C5.79234 1.4043 5.56669 1.41495 4.71827 1.45309C4.21157 1.45971 3.70976 1.55303 3.23465 1.72899C2.88811 1.86162 2.57326 2.0653 2.31038 2.32688C2.0475 2.58847 1.84243 2.90216 1.70838 3.24773C1.53071 3.72677 1.43742 4.23331 1.43209 4.74429C1.38501 5.6039 1.38501 5.82923 1.38501 7.98403C1.38501 10.1131 1.393 10.3713 1.43209 11.2255C1.44009 11.7312 1.53337 12.2324 1.70838 12.707C1.98023 13.4052 2.53459 13.957 3.23554 14.2249C3.71004 14.4019 4.21175 14.4953 4.71827 14.5008C5.57823 14.5505 5.80478 14.5505 7.96535 14.5505C10.1446 14.5505 10.3702 14.5398 11.2115 14.5008C11.7183 14.4947 12.2202 14.4013 12.6952 14.2249C13.0399 14.0912 13.3529 13.8874 13.6145 13.6264C13.876 13.3654 14.0803 13.0529 14.2143 12.7088C14.392 12.2298 14.4853 11.7223 14.4906 11.2114H14.5004C14.5386 10.3633 14.5386 10.1371 14.5386 7.96984C14.5386 5.80262 14.5288 5.57463 14.4906 4.72743C14.4826 4.22219 14.3892 3.72192 14.2143 3.24773C14.0806 2.90312 13.8764 2.59011 13.6149 2.32863C13.3533 2.06715 13.0401 1.86293 12.6952 1.72899C12.2203 1.55217 11.7183 1.45883 11.2115 1.45309C10.3525 1.4043 10.1277 1.4043 7.96535 1.4043ZM7.99556 12.0816C7.18319 12.0821 6.3889 11.8421 5.71317 11.3918C5.03744 10.9415 4.51061 10.3013 4.19932 9.55197C3.88803 8.80268 3.80627 7.97804 3.96437 7.18235C4.12247 6.38666 4.51333 5.65566 5.08751 5.0818C5.6617 4.50795 6.39342 4.11702 7.19012 3.95846C7.98683 3.7999 8.81273 3.88083 9.56336 4.19102C10.314 4.50121 10.9557 5.02673 11.4072 5.7011C11.8587 6.37546 12.0998 7.16839 12.0999 7.9796C12.0985 9.06647 11.6658 10.1085 10.8965 10.8774C10.1271 11.6462 9.084 12.0793 7.99556 12.0816ZM7.99556 5.31648C7.46843 5.31648 6.95315 5.47256 6.51486 5.765C6.07657 6.05743 5.73497 6.47307 5.53325 6.95937C5.33153 7.44567 5.27875 7.98077 5.38158 8.49702C5.48442 9.01328 5.73826 9.48748 6.11099 9.85968C6.48372 10.2319 6.95861 10.4853 7.47561 10.588C7.9926 10.6907 8.52848 10.638 9.01548 10.4366C9.50248 10.2352 9.91873 9.89404 10.2116 9.45639C10.5044 9.01873 10.6607 8.50419 10.6607 7.97782C10.6591 7.27249 10.3778 6.59652 9.87832 6.09778C9.37885 5.59904 8.70191 5.31812 7.99556 5.31648ZM12.2599 4.68397C12.1341 4.6835 12.0096 4.6583 11.8936 4.60981C11.7776 4.56132 11.6723 4.49049 11.5837 4.40136C11.4048 4.22135 11.3048 3.97774 11.3057 3.72411C11.3067 3.47048 11.4085 3.22761 11.5887 3.04893C11.769 2.87026 12.013 2.77041 12.267 2.77135C12.521 2.77229 12.7642 2.87394 12.9431 3.05395C13.122 3.23396 13.222 3.47758 13.2211 3.7312C13.2202 3.98483 13.1184 4.2277 12.9381 4.40638C12.7578 4.58506 12.5139 4.68491 12.2599 4.68397Z" fill="#252525"/>
</g>
</svg>
