<svg width="10" height="12" viewBox="0 0 10 12" fill="none" xmlns="http://www.w3.org/2000/svg">
<path id="Vector" d="M1.98157 0.237467L9.74654 5.55673C9.83871 5.62005 9.90384 5.68865 9.94194 5.76253C9.98065 5.83641 10 5.91557 10 6C10 6.08443 9.98065 6.16359 9.94194 6.23747C9.90384 6.31135 9.83871 6.37995 9.74654 6.44327L1.98157 11.7784C1.76651 11.9261 1.49769 12 1.17511 12C0.852534 12 0.576036 11.9208 0.345622 11.7625C0.115208 11.6042 0 11.4195 0 11.2084C0 10.9974 0.115208 10.8127 0.345622 10.6544L7.11982 6L0.345622 1.34565C0.130569 1.19789 0.0230408 1.01594 0.0230408 0.799789C0.0230408 0.58322 0.138248 0.395778 0.368663 0.237467C0.599077 0.0791559 0.867895 0 1.17511 0C1.48233 0 1.75115 0.0791559 1.98157 0.237467Z" fill="#C4BFBF"/>
</svg>
