<svg width="134" height="42" viewBox="0 0 134 42" fill="none" xmlns="http://www.w3.org/2000/svg">
<g id="Logo">
<g id="Logo_2">
<path id="path4077" d="M6.15094 6.15052C3.21399 9.08738 1.21389 12.8292 0.403555 16.9028C-0.406775 20.9763 0.00906559 25.1987 1.59849 29.036C3.18792 32.8732 5.87954 36.153 9.33298 38.4605C12.7864 40.768 16.8466 41.9996 21 41.9996C25.1534 41.9996 29.2136 40.768 32.667 38.4605C36.1205 36.153 38.8121 32.8732 40.4015 29.036C41.9909 25.1987 42.4068 20.9763 41.5964 16.9028C40.7861 12.8292 38.786 9.08738 35.8491 6.15052C31.9108 2.2124 26.5695 0 21 0C15.4305 0 10.0892 2.2124 6.15094 6.15052ZM28.6661 28.6655C27.1512 30.1808 25.2209 31.2127 23.1195 31.6309C21.018 32.0491 18.8397 31.8347 16.8601 31.0149C14.8805 30.195 13.1884 28.8065 11.998 27.025C10.8075 25.2435 10.1721 23.1489 10.1721 21.0063C10.1721 18.8636 10.8075 16.7691 11.998 14.9876C13.1884 13.206 14.8805 11.8175 16.8601 10.9977C18.8397 10.1778 21.018 9.96344 23.1195 10.3816C25.2209 10.7998 27.1512 11.8318 28.6661 13.347C30.6972 15.3785 31.8383 18.1336 31.8383 21.0063C31.8383 23.879 30.6972 26.634 28.6661 28.6655Z" fill="#4F46E5"/>
<path id="path4079" d="M10.6489 10.9184C10.9367 10.6252 11.133 10.2511 11.2131 9.84339C11.2931 9.43569 11.2532 9.01281 11.0985 8.62835C10.9438 8.2439 10.6812 7.91519 10.344 7.68388C10.0069 7.45258 9.61027 7.3291 9.20454 7.3291C8.79881 7.3291 8.40222 7.45258 8.06503 7.68388C7.72785 7.91519 7.46526 8.2439 7.31055 8.62835C7.15584 9.01281 7.11598 9.43569 7.19603 9.84339C7.27607 10.2511 7.47241 10.6252 7.76015 10.9184C8.14402 11.3096 8.66328 11.5291 9.20454 11.5291C9.7458 11.5291 10.2651 11.3096 10.6489 10.9184Z" fill="#4F46E5"/>
</g>
<g id="Logo_3">
<path id="path4083" d="M50 29.9996V11.9996H54.084V26.1653H62V29.9996H50Z" fill="#181818"/>
<path id="path4085" d="M74.0525 27.9204C73.4724 29.1997 72.1547 29.9996 70.5166 29.9996C66.663 29.9996 64 27.0424 64 22.9676C64 19.0265 66.5055 15.9996 70.384 15.9996C72.7348 15.9996 73.7624 17.3068 74.0276 17.9172V16.3871H77.895V27.2571C77.895 28.4806 77.9751 29.3335 78 29.6262H74.1602C74.0885 29.1053 74.0525 28.5801 74.0525 28.0542V27.9204ZM71.0442 26.5045C72.6547 26.5045 74.0276 25.2252 74.0276 22.9899C74.0276 20.6988 72.6823 19.5003 71.0442 19.5003C69.3287 19.5003 68.0359 20.6988 68.0359 22.9899C68.0359 25.1722 69.3867 26.5045 71.0442 26.5045Z" fill="#181818"/>
<path id="path4085_2" d="M100.052 27.9204C99.4724 29.1997 98.1547 29.9996 96.5166 29.9996C92.663 29.9996 90 27.0424 90 22.9676C90 19.0265 92.5055 15.9996 96.384 15.9996C98.7348 15.9996 99.7624 17.3068 100.028 17.9172V16.3871H103.895V27.2571C103.895 28.4806 103.975 29.3335 104 29.6262H100.16C100.089 29.1053 100.053 28.5801 100.052 28.0542V27.9204ZM97.0442 26.5045C98.6547 26.5045 100.028 25.2252 100.028 22.9899C100.028 20.6988 98.6823 19.5003 97.0442 19.5003C95.3287 19.5003 94.0359 20.6988 94.0359 22.9899C94.0359 25.1722 95.3867 26.5045 97.0442 26.5045Z" fill="#181818"/>
<path id="path4085_3" d="M130.052 27.9204C129.472 29.1997 128.155 29.9996 126.517 29.9996C122.663 29.9996 120 27.0424 120 22.9676C120 19.0265 122.506 15.9996 126.384 15.9996C128.735 15.9996 129.762 17.3068 130.028 17.9172V16.3871H133.895V27.2571C133.895 28.4806 133.975 29.3335 134 29.6262H130.16C130.089 29.1053 130.053 28.5801 130.052 28.0542V27.9204ZM127.044 26.5045C128.655 26.5045 130.028 25.2252 130.028 22.9899C130.028 20.6988 128.682 19.5003 127.044 19.5003C125.329 19.5003 124.036 20.6988 124.036 22.9899C124.036 25.1722 125.387 26.5045 127.044 26.5045Z" fill="#181818"/>
<path id="path4087" d="M85.6832 17.5655H88V20.8329H85.6832V25.4047C85.6832 26.4132 86.2081 26.6911 86.9953 26.6911C87.3169 26.6855 87.637 26.6441 87.95 26.5676V29.6549C87.8076 29.7295 87.2003 29.9996 86.0656 29.9996C83.6064 29.9996 82.1018 28.4997 82.1018 26.0659V20.8329H80V17.5655H80.5973C81.8469 17.5655 82.4367 16.7036 82.4367 15.5742V13.9996H85.6857L85.6832 17.5655Z" fill="#181818"/>
<path id="path4091" d="M109.909 29.9996H106V16.356H109.769V17.9192C110.464 16.6289 112.034 15.9996 113.345 15.9996C116.56 15.9996 118 18.4422 118 21.4335V29.9996H114.101V22.1462C114.101 20.8014 113.434 19.787 112.018 19.787C110.733 19.787 109.909 20.8014 109.909 22.1749V29.9996Z" fill="#181818"/>
</g>
</g>
</svg>
